<svg width="119" height="43" viewBox="0 0 119 43" fill="none" xmlns="http://www.w3.org/2000/svg">
<path d="M63.3945 24.5312C63.3945 25.4688 63.1992 26.2773 62.8086 26.957C62.4258 27.6289 61.8945 28.1758 61.2148 28.5977C60.5117 29.0352 59.707 29.3516 58.8008 29.5469C57.9023 29.7422 56.8906 29.8398 55.7656 29.8398H54.4062V34.5156C54.4062 34.7969 54.457 35.043 54.5586 35.2539C54.668 35.457 54.8711 35.6211 55.168 35.7461C55.3242 35.8086 55.5781 35.875 55.9297 35.9453C56.2812 36.0156 56.5781 36.0625 56.8203 36.0859V37H47.8086V36.0859C48.0352 36.0625 48.3359 36.0312 48.7109 35.9922C49.0859 35.9453 49.3477 35.8906 49.4961 35.8281C49.8008 35.7031 50 35.5508 50.0938 35.3711C50.1953 35.1914 50.2461 34.9414 50.2461 34.6211V22.8906C50.2461 22.6172 50.1992 22.3828 50.1055 22.1875C50.0117 21.9844 49.8086 21.8164 49.4961 21.6836C49.2773 21.5898 48.9844 21.5078 48.6172 21.4375C48.2578 21.3594 47.9883 21.3086 47.8086 21.2852V20.3711H56.9844C59.1328 20.3711 60.7383 20.7148 61.8008 21.4023C62.8633 22.082 63.3945 23.125 63.3945 24.5312ZM58.8242 25.1289C58.8242 23.8789 58.5703 22.9531 58.0625 22.3516C57.5625 21.7422 56.668 21.4375 55.3789 21.4375H54.4062V28.7383H54.8984C56.1797 28.7383 57.1523 28.4453 57.8164 27.8594C58.4883 27.2656 58.8242 26.3555 58.8242 25.1289ZM71.6445 37H64.2969V36.1445C64.5 36.1289 64.6953 36.1094 64.8828 36.0859C65.0781 36.0625 65.25 36.0234 65.3984 35.9688C65.6484 35.875 65.8164 35.7422 65.9023 35.5703C65.9961 35.3906 66.043 35.1562 66.043 34.8672V21.8828C66.043 21.5859 65.9805 21.3125 65.8555 21.0625C65.7383 20.8047 65.5781 20.6094 65.375 20.4766C65.2188 20.375 64.9805 20.2773 64.6602 20.1836C64.3477 20.0898 64.0703 20.0352 63.8281 20.0195V19.1641L69.7227 18.8594L69.8984 19.0469V34.7148C69.8984 35.0039 69.9492 35.2383 70.0508 35.418C70.1523 35.5977 70.3164 35.7383 70.543 35.8398C70.6992 35.9102 70.8633 35.9727 71.0352 36.0273C71.207 36.082 71.4102 36.1211 71.6445 36.1445V37ZM86.1758 36.7539C85.832 36.9023 85.4258 37.0391 84.957 37.1641C84.4883 37.2891 83.9922 37.3516 83.4688 37.3516C82.5078 37.3516 81.8008 37.2109 81.3477 36.9297C80.8945 36.6406 80.5859 36.2305 80.4219 35.6992H80.3516C80.0859 35.9648 79.8281 36.1914 79.5781 36.3789C79.3359 36.5664 79.0742 36.7266 78.793 36.8594C78.4258 37.0312 78.0703 37.1562 77.7266 37.2344C77.3906 37.3203 76.918 37.3633 76.3086 37.3633C75.4023 37.3633 74.6289 37.0977 73.9883 36.5664C73.3477 36.0273 73.0273 35.3164 73.0273 34.4336C73.0273 33.9258 73.0977 33.4961 73.2383 33.1445C73.3789 32.7852 73.5781 32.4688 73.8359 32.1953C74.0703 31.9453 74.3398 31.7383 74.6445 31.5742C74.957 31.4102 75.2969 31.2578 75.6641 31.1172C76.3672 30.8594 77.2109 30.5938 78.1953 30.3203C79.1797 30.0391 79.8984 29.7891 80.3516 29.5703V28.4453C80.3516 28.25 80.3359 27.9922 80.3047 27.6719C80.2734 27.3516 80.207 27.082 80.1055 26.8633C79.9961 26.6133 79.8242 26.4023 79.5898 26.2305C79.3555 26.0586 79.0469 25.9727 78.6641 25.9727C78.3203 25.9727 78.0312 26.0234 77.7969 26.125C77.5703 26.2188 77.3867 26.3164 77.2461 26.418C77.2695 26.5742 77.3359 26.8125 77.4453 27.1328C77.5547 27.4531 77.6094 27.7617 77.6094 28.0586C77.6094 28.1914 77.5742 28.3594 77.5039 28.5625C77.4336 28.7578 77.332 28.9141 77.1992 29.0312C77.0195 29.1875 76.8164 29.3086 76.5898 29.3945C76.3711 29.4805 76.0312 29.5234 75.5703 29.5234C74.9141 29.5234 74.418 29.3672 74.082 29.0547C73.7461 28.7344 73.5781 28.3203 73.5781 27.8125C73.5781 27.375 73.75 26.9844 74.0938 26.6406C74.4453 26.2891 74.8711 26 75.3711 25.7734C75.8633 25.5391 76.4297 25.3594 77.0703 25.2344C77.7109 25.1016 78.3047 25.0352 78.8516 25.0352C79.6094 25.0352 80.3047 25.082 80.9375 25.1758C81.5703 25.2617 82.1406 25.4453 82.6484 25.7266C83.1328 26 83.5156 26.3984 83.7969 26.9219C84.0859 27.4375 84.2305 28.1133 84.2305 28.9492C84.2305 29.832 84.2109 30.8789 84.1719 32.0898C84.1406 33.3008 84.125 34.0977 84.125 34.4805C84.125 34.832 84.1758 35.1094 84.2773 35.3125C84.3867 35.5156 84.5508 35.668 84.7695 35.7695C84.9023 35.832 85.1094 35.8711 85.3906 35.8867C85.6797 35.8945 85.9414 35.8984 86.1758 35.8984V36.7539ZM80.3516 30.6484C79.9141 30.7969 79.4805 30.9688 79.0508 31.1641C78.6211 31.3516 78.2695 31.5508 77.9961 31.7617C77.707 31.9805 77.4805 32.2617 77.3164 32.6055C77.1523 32.9414 77.0703 33.3398 77.0703 33.8008C77.0703 34.4102 77.207 34.8516 77.4805 35.125C77.7617 35.3984 78.1055 35.5352 78.5117 35.5352C78.9414 35.5352 79.293 35.4492 79.5664 35.2773C79.8477 35.0977 80.0938 34.8789 80.3047 34.6211L80.3516 30.6484ZM102.547 37H95.4922V36.1445C95.6406 36.1289 95.8203 36.1094 96.0312 36.0859C96.2422 36.0625 96.4023 36.0234 96.5117 35.9688C96.6758 35.8828 96.793 35.7578 96.8633 35.5938C96.9336 35.4297 96.9688 35.1875 96.9688 34.8672V29.3828C96.9688 28.5859 96.8203 27.9883 96.5234 27.5898C96.2344 27.1836 95.8047 26.9805 95.2344 26.9805C94.9219 26.9805 94.6289 27.0273 94.3555 27.1211C94.0898 27.2148 93.8281 27.3516 93.5703 27.5312C93.3438 27.6875 93.1602 27.8477 93.0195 28.0117C92.8867 28.1758 92.7734 28.3203 92.6797 28.4453V34.7383C92.6797 35.0117 92.7188 35.2422 92.7969 35.4297C92.875 35.6094 93.0039 35.7461 93.1836 35.8398C93.3086 35.9102 93.4648 35.9727 93.6523 36.0273C93.8398 36.082 94.0234 36.1211 94.2031 36.1445V37H87.0781V36.1445C87.2734 36.1289 87.4688 36.1094 87.6641 36.0859C87.8672 36.0547 88.0391 36.0156 88.1797 35.9688C88.4297 35.8828 88.6016 35.75 88.6953 35.5703C88.7891 35.3906 88.8359 35.1562 88.8359 34.8672V28.0469C88.8359 27.8047 88.7734 27.5664 88.6484 27.332C88.5234 27.0977 88.3594 26.9062 88.1562 26.7578C88.0156 26.6641 87.8359 26.5859 87.6172 26.5234C87.4062 26.4609 87.1719 26.418 86.9141 26.3945V25.5391L92.5039 25.2344L92.6797 25.4102V27.1094H92.7266C92.9453 26.9141 93.2109 26.6797 93.5234 26.4062C93.8359 26.1328 94.125 25.9102 94.3906 25.7383C94.6797 25.5508 95.0586 25.3906 95.5273 25.2578C95.9961 25.125 96.4961 25.0586 97.0273 25.0586C98.3008 25.0586 99.2539 25.4219 99.8867 26.1484C100.527 26.8672 100.848 27.8242 100.848 29.0195V34.7617C100.848 35.0508 100.891 35.2812 100.977 35.4531C101.062 35.625 101.223 35.7617 101.457 35.8633C101.582 35.918 101.734 35.9727 101.914 36.0273C102.102 36.082 102.312 36.1211 102.547 36.1445V37ZM118.801 36.7539L113.023 37.0938L112.848 36.9297V35.8516L112.766 35.8281C112.383 36.2422 111.863 36.6055 111.207 36.918C110.559 37.2227 109.902 37.375 109.238 37.375C107.66 37.375 106.359 36.7891 105.336 35.6172C104.312 34.4453 103.801 32.9297 103.801 31.0703C103.801 29.4219 104.371 28.0078 105.512 26.8281C106.66 25.6484 108.047 25.0586 109.672 25.0586C110.312 25.0586 110.914 25.1328 111.477 25.2812C112.039 25.4219 112.488 25.5898 112.824 25.7852V21.9531C112.824 21.6641 112.766 21.3945 112.648 21.1445C112.531 20.8867 112.375 20.6875 112.18 20.5469C111.938 20.375 111.633 20.2539 111.266 20.1836C110.906 20.1055 110.543 20.0508 110.176 20.0195V19.1641L116.504 18.8594L116.68 19.0469V34.4102C116.68 34.707 116.727 34.957 116.82 35.1602C116.922 35.3633 117.082 35.5234 117.301 35.6406C117.465 35.7266 117.703 35.7891 118.016 35.8281C118.336 35.8672 118.598 35.8906 118.801 35.8984V36.7539ZM112.824 34.668V28.0469C112.77 27.8672 112.691 27.668 112.59 27.4492C112.496 27.2305 112.363 27.0234 112.191 26.8281C112.035 26.6641 111.824 26.5195 111.559 26.3945C111.301 26.2695 111.008 26.207 110.68 26.207C109.898 26.207 109.258 26.6484 108.758 27.5312C108.258 28.4141 108.008 29.6602 108.008 31.2695C108.008 31.9023 108.051 32.4727 108.137 32.9805C108.23 33.4805 108.391 33.9375 108.617 34.3516C108.844 34.7656 109.133 35.0898 109.484 35.3242C109.844 35.5586 110.273 35.6758 110.773 35.6758C111.25 35.6758 111.645 35.5859 111.957 35.4062C112.27 35.2188 112.559 34.9727 112.824 34.668Z" fill="white"/>
<g clip-path="url(#clip0)">
<path d="M13.5637 11.3989C13.5637 16.6947 16.332 21.3434 20.5 23.9787C24.668 21.3434 27.4363 16.6947 27.4363 11.3989C27.4363 8.37127 26.5315 5.55516 24.9777 3.20583C22.8569 -0.000900768 18.1432 -0.000900768 16.0224 3.20583C14.4685 5.55516 13.5637 8.37127 13.5637 11.3989V11.3989Z" fill="#EB9A5F"/>
<path d="M5.22704 28.9391C7.99599 31.7081 11.874 32.6913 15.4311 31.8899C16.2324 28.3328 15.2493 24.4548 12.4803 21.6859C10.4953 19.7009 7.94033 18.6336 5.3422 18.4836C3.4638 18.3752 1.91629 19.9227 2.02472 21.8011C2.17479 24.3992 3.24207 26.9541 5.22704 28.9391V28.9391Z" fill="#EB9B5F"/>
<path d="M35.773 28.9391C33.004 31.7081 29.126 32.6913 25.5689 31.8899C24.7676 28.3328 25.7507 24.4548 28.5197 21.6859C30.5047 19.7009 33.0597 18.6336 35.6578 18.4836C37.5362 18.3752 39.0837 19.9227 38.9753 21.8011C38.8252 24.3992 37.758 26.9541 35.773 28.9391V28.9391Z" fill="#EB9B5F"/>
<path d="M38.6278 18.831C37.834 18.0373 36.7345 17.6192 35.6116 17.6841C32.7218 17.8509 30.002 19.071 27.9534 21.1196C25.181 23.8921 23.9819 27.7911 24.6984 31.6279L21.3008 35.0255V24.4117C24.5496 22.2294 26.8435 18.9632 27.7807 15.1676C27.8867 14.7382 27.6246 14.3042 27.1953 14.1982C26.7661 14.0923 26.3319 14.3542 26.2258 14.7836C25.4733 17.8314 23.7455 20.4996 21.3008 22.4315V17.3605L23.7461 14.9151C24.0588 14.6024 24.0588 14.0954 23.7461 13.7826C23.4334 13.4699 22.9264 13.4699 22.6136 13.7826L21.3008 15.0954V12.2093L23.4763 10.0339C23.789 9.72116 23.7891 9.21411 23.4763 8.9014C23.1635 8.5887 22.6565 8.5887 22.3438 8.9014L21.3008 9.94434V7.27302C21.3008 6.83074 20.9423 6.47223 20.5 6.47223C20.0577 6.47223 19.6992 6.83074 19.6992 7.27302V9.92104L18.6795 8.90132C18.3668 8.58862 17.8597 8.58862 17.547 8.90132C17.2342 9.21403 17.2343 9.72108 17.547 10.0339L19.6992 12.186V15.0722L18.4096 13.7826C18.0969 13.4699 17.5899 13.4699 17.2771 13.7826C16.9644 14.0954 16.9644 14.6024 17.2771 14.9152L19.6992 17.3372V22.43C16.3345 19.7708 14.3645 15.7478 14.3645 11.3988C14.3645 8.62826 15.1687 5.94796 16.6902 3.64756C17.5376 2.36639 18.9618 1.60156 20.5 1.60156C22.0382 1.60156 23.4624 2.36639 24.3098 3.64756C25.1969 4.98879 25.8415 6.45758 26.2258 8.01334C26.3318 8.44264 26.7655 8.70465 27.1952 8.59879C27.6246 8.49269 27.8867 8.05866 27.7806 7.62936C27.3523 5.89535 26.634 4.25839 25.6456 2.76406C24.5009 1.03333 22.5773 0 20.5 0C18.4227 0 16.4991 1.03333 15.3544 2.76406C13.6591 5.32728 12.763 8.31315 12.763 11.3988C12.763 16.6573 15.3478 21.4882 19.6993 24.4115V35.0255L16.3017 31.6279C17.0182 27.7911 15.8191 23.8921 13.0467 21.1196C10.998 19.071 8.27832 17.8509 5.38846 17.6841C4.26553 17.6193 3.16597 18.0374 2.37232 18.831C1.57858 19.6247 1.16058 20.7241 1.22544 21.8472C1.39224 24.737 2.61231 27.4568 4.66087 29.5053C6.90626 31.7507 9.88997 32.9646 12.9816 32.9645C13.7075 32.9645 14.4395 32.8965 15.169 32.7603L19.6992 37.2905V40.1992C19.6992 40.6415 20.0577 41 20.5 41C20.9423 41 21.3008 40.6415 21.3008 40.1992V37.2905L25.831 32.7603C26.5607 32.8966 27.2924 32.9645 28.0185 32.9645C31.1098 32.9645 34.0941 31.7505 36.3392 29.5053C38.3879 27.4567 39.6079 24.737 39.7747 21.8472C39.8395 20.7241 39.4215 19.6247 38.6278 18.831ZM12.9851 31.3624C10.313 31.3622 7.73355 30.3131 5.79334 28.3728C4.02289 26.6024 2.96842 24.2521 2.82428 21.7548C2.7852 21.0775 3.0268 20.4413 3.50478 19.9634C3.94922 19.519 4.53058 19.2788 5.15455 19.2788C5.20148 19.2788 5.24872 19.2802 5.29621 19.2829C7.79345 19.427 10.1437 20.4815 11.9142 22.2519C14.0373 24.3751 15.0923 27.263 14.8747 30.2007L9.8971 25.2232C9.58439 24.9105 9.07734 24.9105 8.76455 25.2232C8.45185 25.5359 8.45185 26.0429 8.76455 26.3557L13.7425 31.3336C13.4895 31.3525 13.2368 31.3624 12.9851 31.3624V31.3624ZM38.1757 21.7549C38.0316 24.2521 36.9772 26.6024 35.2067 28.3729C33.0836 30.496 30.1957 31.5512 27.2579 31.3335L32.2355 26.3559C32.5482 26.0432 32.5482 25.5361 32.2355 25.2233C31.9227 24.9106 31.4157 24.9106 31.1029 25.2233L26.1253 30.2009C25.9076 27.2632 26.9627 24.3752 29.0858 22.2521C30.8563 20.4817 33.2066 19.4272 35.7038 19.2831C36.3813 19.2437 37.0173 19.4856 37.4952 19.9636C37.9732 20.4414 38.2149 21.0776 38.1757 21.7549V21.7549Z" fill="#3E4D3E"/>
<path d="M27.4363 12.2C27.8785 12.2 28.2371 11.8414 28.2371 11.3992C28.2371 10.9569 27.8785 10.5984 27.4363 10.5984C26.994 10.5984 26.6355 10.9569 26.6355 11.3992C26.6355 11.8414 26.994 12.2 27.4363 12.2Z" fill="black"/>
</g>
<defs>
<clipPath id="clip0">
<rect width="41" height="41" fill="white"/>
</clipPath>
</defs>
</svg>
